# xmcd
#
# Track frame offsets:
#	150
#	6269
#	74404
#	122518
#	157872
#	180941
#	218148
#
# Disc length: 3133 seconds
#
# Revision: 0
# Processed by: cddbd v1.5.2PL0 Copyright (c) Steve Scherf et al.
# Submitted via: EZCDAudioConverter 3.1.7.1
#
DISCID=510c3b07
DTITLE=Johnny Winter - Live Bootleg series Vol. 12
DYEAR=2016
DGENRE=Blues
TTITLE0=Introduction
TTITLE1=Blues Jam
TTITLE2=Mother Earth
TTITLE3=Black Cat Bone
TTITLE4=Unseen Eye
TTITLE5=Slow Down
TTITLE6=White Line Blues (Acoustic Instrumental)
EXTD=
EXTT0=
EXTT1=
EXTT2=
EXTT3=
EXTT4=
EXTT5=
EXTT6=
PLAYORDER=
